<svg xmlns="http://www.w3.org/2000/svg" viewBox="0 0 100 100" role="img" aria-label="Jhelum Labs mark">
  <path d="M40 7 H69 V17 L40 13.5 Z" fill="#000"/>
  <path d="M55 7 H69 V37 H55 Z" fill="#000"/>
  <path d="M62 35 V42 C62 60 45 72 30 72 C21 72 14.5 66 13 58.5" stroke="#000" stroke-width="6.5" fill="none"/>
  <path d="M62 35 V42 C62 56 46 65 34.5 65 C26.5 65 20.5 60.5 19 54.5" stroke="#000" stroke-width="4.2" fill="none"/>
  <path d="M62 35 V42 C62 52 49 58.5 40 58.5 C33.5 58.5 28.5 55 27.5 50.5" stroke="#000" stroke-width="3" fill="none"/>
  <g stroke="#000" stroke-width="2.4">
    <path d="M66 34 L72 18"/>
    <path d="M66 34 L81 29"/>
    <path d="M66 34 L78 47"/>
    <path d="M66 34 L66 49"/>
  </g>
  <circle cx="72" cy="17" r="4.2" fill="#000"/>
  <circle cx="81.5" cy="28.5" r="5.2" fill="#000"/>
  <circle cx="78.5" cy="47.5" r="6" fill="#000"/>
  <circle cx="66" cy="49.5" r="3.8" fill="#000"/>
  <circle cx="66" cy="34" r="7.2" fill="#000"/>
</svg>
